<svg xmlns="http://www.w3.org/2000/svg" viewBox="0 0 600 340" width="600" height="340">
  <defs>
    <linearGradient id="bg6" x1="0" y1="0" x2="1" y2="1">
      <stop offset="0%" stop-color="#020617"/>
      <stop offset="100%" stop-color="#0a1020"/>
    </linearGradient>
    <linearGradient id="accent6" x1="0" y1="0" x2="1" y2="1">
      <stop offset="0%" stop-color="#00e5ff"/>
      <stop offset="100%" stop-color="#2563eb"/>
    </linearGradient>
  </defs>
  <rect width="600" height="340" fill="url(#bg6)" rx="12"/>
  <rect x="20" y="20" width="560" height="40" fill="#0f172a" rx="6" stroke="#1e293b" stroke-width="1"/>
  <circle cx="35" cy="40" r="6" fill="#ef4444"/>
  <circle cx="55" cy="40" r="6" fill="#f59e0b"/>
  <circle cx="75" cy="40" r="6" fill="#10b981"/>
  <rect x="20" y="70" width="560" height="250" fill="#0f172a" rx="6" stroke="#1e293b" stroke-width="1"/>
  <rect x="35" y="85" width="270" height="120" fill="#0a1020" rx="6" stroke="#1e293b" stroke-width="1"/>
  <rect x="45" y="95" width="250" height="30" fill="#1e293b" rx="4"/>
  <rect x="55" y="100" width="180" height="20" fill="#2563eb" opacity="0.4" rx="2"/>
  <circle cx="465" cy="145" r="35" fill="#0a1020" stroke="#00e5ff" stroke-width="2" opacity="0.6"/>
  <circle cx="465" cy="145" r="25" fill="#0a1020" stroke="#00e5ff" stroke-width="1.5" opacity="0.4"/>
  <path d="M455 145 L462 152 L475 139" stroke="#00e5ff" stroke-width="3" fill="none" stroke-linecap="round" stroke-linejoin="round"/>
  <rect x="35" y="220" width="130" height="90" fill="#0a1020" rx="6" stroke="#1e293b" stroke-width="1"/>
  <rect x="45" y="230" width="110" height="10" fill="#334155" rx="2"/>
  <rect x="45" y="250" width="100" height="8" fill="#1e293b" rx="2"/>
  <rect x="45" y="266" width="110" height="8" fill="#1e293b" rx="2"/>
  <rect x="45" y="282" width="90" height="8" fill="#1e293b" rx="2"/>
  <rect x="180" y="220" width="130" height="90" fill="#0a1020" rx="6" stroke="#1e293b" stroke-width="1"/>
  <rect x="190" y="230" width="110" height="10" fill="#334155" rx="2"/>
  <rect x="190" y="250" width="100" height="8" fill="#1e293b" rx="2"/>
  <rect x="190" y="266" width="110" height="8" fill="#1e293b" rx="2"/>
  <rect x="190" y="282" width="90" height="8" fill="#1e293b" rx="2"/>
  <rect x="325" y="220" width="130" height="90" fill="#0a1020" rx="6" stroke="#1e293b" stroke-width="1"/>
  <rect x="335" y="230" width="110" height="10" fill="#334155" rx="2"/>
  <rect x="335" y="250" width="100" height="8" fill="#1e293b" rx="2"/>
  <rect x="335" y="266" width="110" height="8" fill="#1e293b" rx="2"/>
  <rect x="335" y="282" width="90" height="8" fill="#1e293b" rx="2"/>
  <rect x="470" y="220" width="100" height="90" fill="#0a1020" rx="6" stroke="#1e293b" stroke-width="1"/>
  <rect x="480" y="230" width="80" height="10" fill="#334155" rx="2"/>
  <rect x="480" y="250" width="70" height="8" fill="#1e293b" rx="2"/>
  <rect x="480" y="266" width="80" height="8" fill="#1e293b" rx="2"/>
  <rect x="480" y="282" width="60" height="8" fill="#1e293b" rx="2"/>
  <rect x="20" y="320" width="560" height="1" fill="url(#accent6)" opacity="0.3"/>
</svg>
